<svg width="26" height="26" viewBox="0 0 26 26" fill="none" xmlns="http://www.w3.org/2000/svg">
<rect x="0.5" y="0.5" width="25" height="25" rx="2.5" fill="white" stroke="#DCDCDC"/>
<path d="M18.4272 10.1617H12.4567C12.2451 10.1617 12.0733 9.99 12.0733 9.77836V8.75105C12.0733 8.53941 12.2451 8.36769 12.4567 8.36769H18.4272C18.6388 8.36769 18.8106 8.53941 18.8106 8.75105V9.77836C18.8106 9.99 18.6388 10.1617 18.4272 10.1617Z" fill="#1F1F1F"/>
<path d="M15.9854 13.8969H10.0146C9.80297 13.8969 9.63126 13.7251 9.63126 13.5135V12.4862C9.63126 12.2746 9.80297 12.1028 10.0146 12.1028H15.9851C16.1968 12.1028 16.3685 12.2746 16.3685 12.4862V13.5135C16.3685 13.7254 16.197 13.8969 15.9854 13.8969Z" fill="#1F1F1F"/>
<path d="M13.5433 17.6323H7.57281C7.36117 17.6323 7.18945 17.4606 7.18945 17.2489V16.2216C7.18945 16.01 7.36117 15.8383 7.57281 15.8383H13.5433C13.755 15.8383 13.9267 16.01 13.9267 16.2216V17.2489C13.9267 17.4606 13.755 17.6323 13.5433 17.6323Z" fill="#1F1F1F"/>
</svg>
