<svg width="26" height="26" viewBox="0 0 26 26" fill="none" xmlns="http://www.w3.org/2000/svg">
<rect width="26" height="26" rx="3" fill="#1F1F1F"/>
<path d="M6 7.17081V8.90114V9.37305V18.8292H20V9.37305V8.90114V7.17081H6ZM14.7041 14.7333H11.2959V12.5251H14.7041V14.7333ZM15.648 12.5251H19.0562V14.7333H15.648V12.5251ZM14.7041 15.6771V17.8854H11.2959V15.6771H14.7041ZM6.94382 12.5251H10.352V14.7333H6.94382V12.5251ZM11.2959 11.5813V9.37305H14.7041V11.5813H11.2959ZM10.352 9.37305V11.5813H6.94382V9.37305H10.352ZM6.94382 15.6771H10.352V17.8854H6.94382V15.6771ZM15.648 17.8854V15.6771H19.0562V17.8854H15.648ZM19.0562 11.5813H15.648V9.37305H19.0562V11.5813Z" fill="white"/>
</svg>
