<svg width="17" height="486" viewBox="0 0 17 486" fill="none" xmlns="http://www.w3.org/2000/svg">
<path d="M3 0.5C1.61929 0.5 0.5 1.61929 0.5 3L0.499979 483C0.499979 484.381 1.61927 485.5 2.99998 485.5L14 485.5C15.3807 485.5 16.5 484.381 16.5 483L16.5 3C16.5 1.61929 15.3807 0.500001 14 0.500001L3 0.5Z" stroke="#DCDCDC"/>
<path d="M0.5 21.5L0.499993 178.5L16.5 178.5L16.5 21.5L0.5 21.5Z" fill="white" stroke="#DCDCDC"/>
<path d="M3 0.5C1.61929 0.5 0.5 1.61929 0.5 3L0.499999 21.5L16.5 21.5L16.5 3C16.5 1.61929 15.3807 0.500001 14 0.500001L3 0.5Z" fill="white" stroke="#DCDCDC"/>
<path d="M8.5 8L5.46891 12.5L11.5311 12.5L8.5 8Z" fill="#1F1F1F"/>
<path d="M3 485.5C1.61929 485.5 0.5 484.381 0.5 483L0.500001 464.5L16.5 464.5L16.5 483C16.5 484.381 15.3807 485.5 14 485.5L3 485.5Z" fill="white" stroke="#DCDCDC"/>
<path d="M8.5 478L5.46891 473.5H11.5311L8.5 478Z" fill="#1F1F1F"/>
<line x1="12" y1="96.5" x2="5" y2="96.5" stroke="black"/>
<line x1="12" y1="100.5" x2="5" y2="100.5" stroke="black"/>
<line x1="12" y1="104.5" x2="5" y2="104.5" stroke="black"/>
</svg>
