<svg width="8" height="10" viewBox="0 0 8 10" fill="none" xmlns="http://www.w3.org/2000/svg">
<path d="M7.03078 0H0.97017C0.71914 0 0.515625 0.203515 0.515625 0.454545V9.54545C0.515625 9.72018 0.615776 9.87945 0.773261 9.95515C0.930746 10.0308 1.11766 10.0096 1.25411 9.90039L4.00047 7.70333L6.74684 9.90039C6.82902 9.96615 6.92947 10 7.03084 10C7.09775 10 7.16508 9.98524 7.22768 9.95515C7.38517 9.87948 7.48532 9.72021 7.48532 9.54545V0.454545C7.48532 0.203515 7.28181 0 7.03078 0ZM6.57623 8.5997L4.28441 6.76627C4.20141 6.69988 4.10093 6.66667 4.00047 6.66667C3.90002 6.66667 3.79953 6.69988 3.71653 6.76627L1.42472 8.5997V0.909091H6.57623V8.5997Z" fill="#010002"/>
</svg>
