<svg width="14" height="14" viewBox="0 0 14 14" fill="none" xmlns="http://www.w3.org/2000/svg">
<path d="M12.0797 2.18544C12.0639 2.16879 12.0472 2.15337 12.03 2.13857C9.27458 -0.712165 4.72411 -0.713587 1.96738 2.13868C1.95024 2.15345 1.93353 2.16887 1.91781 2.18547C-0.606668 4.84885 -0.671663 9.08255 1.91781 11.8145C1.93419 11.8318 1.95141 11.848 1.96929 11.8633C4.72427 14.7115 9.27177 14.713 12.0282 11.8633C12.0461 11.848 12.0633 11.8318 12.0797 11.8145C14.6217 9.13253 14.6568 4.90441 12.0797 2.18544ZM2.33327 10.1969C1.00136 8.25923 1.0176 5.71704 2.33327 3.80301C3.37224 5.75655 3.41058 8.17129 2.33327 10.1969ZM10.7239 11.2547C8.59091 13.1245 5.41005 13.1275 3.27361 11.2547C4.86537 8.65429 4.8707 5.3544 3.27361 2.7453C5.40653 0.875543 8.58738 0.872426 10.7239 2.7453C9.1321 5.34576 9.12679 8.64559 10.7239 11.2547ZM11.6642 10.1969C10.6281 8.24873 10.5843 5.83363 11.6642 3.80301C12.9854 5.72524 12.9912 8.26639 11.6642 10.1969Z" fill="#1F1F1F"/>
</svg>
