<?xml version="1.0" encoding="UTF-8"?>
<svg xmlns="http://www.w3.org/2000/svg" xmlns:xlink="http://www.w3.org/1999/xlink" viewBox="0 0 500 500" width="500px" height="500px">
<g id="surface720791">
<path style=" stroke:none;fill-rule:nonzero;fill:rgb(0%,100%,90.980393%);fill-opacity:1;" d="M 130 40 C 80.414062 40 40 80.414062 40 130 L 40 370 C 40 419.585938 80.414062 460 130 460 L 370 460 C 419.585938 460 460 419.585938 460 370 L 460 130 C 460 80.414062 419.585938 40 370 40 Z M 130 60 L 370 60 C 373.550781 60 376.59375 61.507812 380 62.011719 L 380 437.988281 C 376.59375 438.492188 373.550781 440 370 440 L 130 440 C 91.226562 440 60 408.773438 60 370 L 60 130 C 60 91.226562 91.226562 60 130 60 Z M 400 67.304688 C 423.519531 78.566406 440 102.09375 440 130 L 440 140 L 400 140 Z M 220 120 C 148.320312 120 90 178.320312 90 250 C 90 321.679688 148.320312 380 220 380 C 291.679688 380 350 321.679688 350 250 C 350 178.320312 291.679688 120 220 120 Z M 220 140 C 280.871094 140 330 189.128906 330 250 C 330 278.222656 319.347656 303.832031 301.953125 323.28125 C 281.699219 302.714844 252.398438 290 220 290 C 187.589844 290 158.339844 302.765625 138.085938 323.339844 C 120.664062 303.886719 110 278.246094 110 250 C 110 189.128906 159.128906 140 220 140 Z M 400 160 L 440 160 L 440 240 L 400 240 Z M 220 180 C 204.167969 180 191.019531 186.296875 182.519531 195.859375 C 174.019531 205.421875 170 217.777344 170 230 C 170 242.222656 174.019531 254.578125 182.519531 264.140625 C 191.019531 273.703125 204.167969 280 220 280 C 235.832031 280 248.980469 273.703125 257.480469 264.140625 C 265.980469 254.578125 270 242.222656 270 230 C 270 217.777344 265.980469 205.421875 257.480469 195.859375 C 248.980469 186.296875 235.832031 180 220 180 Z M 220 200 C 230.832031 200 237.6875 203.703125 242.519531 209.140625 C 247.351562 214.578125 250 222.222656 250 230 C 250 237.777344 247.351562 245.421875 242.519531 250.859375 C 237.6875 256.296875 230.832031 260 220 260 C 209.167969 260 202.3125 256.296875 197.480469 250.859375 C 192.648438 245.421875 190 237.777344 190 230 C 190 222.222656 192.648438 214.578125 197.480469 209.140625 C 202.3125 203.703125 209.167969 200 220 200 Z M 400 260 L 440 260 L 440 340 L 400 340 Z M 220 310 C 246.945312 310 270.929688 320.558594 287.304688 336.953125 C 268.707031 351.355469 245.410156 360 220 360 C 194.617188 360 171.34375 351.367188 152.753906 336.992188 C 169.128906 320.605469 193.058594 310 220 310 Z M 400 360 L 440 360 L 440 370 C 440 397.90625 423.519531 421.433594 400 432.695312 Z M 400 360 "/>
</g>
</svg>
